<svg width="94" height="30" viewBox="0 0 74 16" fill="none" xmlns="http://www.w3.org/2000/svg">
<g clip-path="url(#clip0_4545_3337)">
<path d="M8.05346 8.80307L7.35627 7.99609C7.24148 7.86324 7.21597 7.67593 7.29105 7.51762L8.65899 4.63369C8.79881 4.33891 8.58203 4 8.25364 4H6.77919C6.60607 4 6.44845 4.09896 6.37433 4.25418L4.61003 7.9494C4.53141 8.11409 4.56208 8.30971 4.6874 8.44291L7.41337 11.3406C7.536 11.4709 7.56823 11.6614 7.49524 11.8243L6.11 14.9165C5.97672 15.214 5.57697 15.2731 5.36208 15.0271L0.187425 9.10344C0.0731397 8.97262 0.0458278 8.78787 0.117437 8.62998L3.91293 0.26206C3.98528 0.102571 4.14519 0 4.32147 0H12.073C12.3985 0 12.6153 0.333438 12.4812 0.627629L8.80174 8.697C8.66659 8.9934 8.26683 9.05004 8.05346 8.80307Z" fill="#38B6FF"/>
<path d="M13.5996 1.27285L12.2246 4.17157C12.1466 4.33608 12.1774 4.53115 12.3025 4.66406L15.028 7.56121C15.1511 7.69212 15.1831 7.88357 15.109 8.04686L13.3342 11.9597C13.2619 12.1192 13.102 12.2217 12.9257 12.2217H11.4408C11.1166 12.2217 10.8998 11.8907 11.0314 11.5968L12.4184 8.50068C12.4937 8.33264 12.4569 8.13595 12.3258 8.0059L11.4433 7.13039C11.2192 6.90804 10.8397 6.98057 10.7148 7.26957L7.21128 15.38C7.08459 15.6733 7.30141 15.9995 7.62304 15.9995H15.3896C15.5659 15.9995 15.7258 15.897 15.7981 15.7375L19.5914 7.37437C19.6641 7.21404 19.6347 7.02621 19.5164 6.8953L14.3385 1.16541C14.1244 0.928525 13.7361 0.984985 13.5996 1.27285Z" fill="#5E17EB"/>
<path d="M28.9914 6.49321C28.814 6.15426 28.5676 5.90003 28.2522 5.73054C27.9368 5.55454 27.5722 5.46655 27.1582 5.46655C26.7049 5.46655 26.3008 5.56759 25.946 5.76966C25.5912 5.97172 25.3119 6.25854 25.1083 6.6301C24.9112 7.00166 24.8126 7.43188 24.8126 7.92077C24.8126 8.40966 24.9112 8.84314 25.1083 9.22121C25.3119 9.59277 25.5912 9.87959 25.946 10.0817C26.3008 10.2837 26.7049 10.3848 27.1582 10.3848C27.7693 10.3848 28.2654 10.2153 28.6464 9.87632C29.0274 9.53737 29.2608 9.07781 29.3462 8.49766H26.7739V7.60788H30.5485V8.4781C30.4762 9.0061 30.2858 9.49172 29.9769 9.93499C29.6748 10.3783 29.2772 10.7335 28.7844 11.0008C28.2981 11.2615 27.7561 11.3919 27.1582 11.3919C26.5143 11.3919 25.9263 11.2452 25.3941 10.9519C24.8619 10.652 24.4381 10.2381 24.1227 9.7101C23.8139 9.1821 23.6595 8.58566 23.6595 7.92077C23.6595 7.25588 23.8139 6.65943 24.1227 6.13143C24.4381 5.60343 24.8619 5.19277 25.3941 4.89943C25.9328 4.59959 26.521 4.44966 27.1582 4.44966C27.8876 4.44966 28.5347 4.62892 29.0998 4.98743C29.6714 5.33943 30.0853 5.84137 30.3416 6.49321H28.9914ZM34.5049 11.4212C33.9924 11.4212 33.5292 11.3071 33.1152 11.079C32.7013 10.8443 32.3761 10.5184 32.1395 10.1012C31.903 9.6775 31.7847 9.18861 31.7847 8.63454C31.7847 8.08699 31.9064 7.60137 32.1494 7.17766C32.3926 6.75394 32.7244 6.42803 33.1448 6.19988C33.5655 5.97172 34.0352 5.85766 34.5541 5.85766C35.0733 5.85766 35.5431 5.97172 35.9635 6.19988C36.3841 6.42803 36.7159 6.75394 36.9589 7.17766C37.2021 7.60137 37.3235 8.08699 37.3235 8.63454C37.3235 9.1821 37.1988 9.66772 36.949 10.0914C36.6995 10.5151 36.3577 10.8443 35.9241 11.079C35.4971 11.3071 35.0241 11.4212 34.5049 11.4212ZM34.5049 10.4532C34.794 10.4532 35.0635 10.3848 35.313 10.2479C35.5693 10.111 35.7762 9.90566 35.9339 9.63188C36.0916 9.3581 36.1704 9.02566 36.1704 8.63454C36.1704 8.24343 36.095 7.91426 35.9438 7.64699C35.7928 7.37321 35.5923 7.16788 35.3426 7.03099C35.0931 6.8941 34.8236 6.82566 34.5344 6.82566C34.2455 6.82566 33.976 6.8941 33.7263 7.03099C33.4832 7.16788 33.2895 7.37321 33.1448 7.64699C33.0003 7.91426 32.928 8.24343 32.928 8.63454C32.928 9.2147 33.0758 9.66448 33.3715 9.98388C33.6739 10.2968 34.0515 10.4532 34.5049 10.4532ZM38.5526 7.92077C38.5526 7.25588 38.7069 6.65943 39.0158 6.13143C39.3312 5.60343 39.7549 5.19277 40.2871 4.89943C40.8258 4.59959 41.414 4.44966 42.0513 4.44966C42.7806 4.44966 43.4277 4.62892 43.9928 4.98743C44.5644 5.33943 44.9784 5.84137 45.2346 6.49321H43.8844C43.707 6.1347 43.4606 5.86743 43.1452 5.69143C42.8299 5.51543 42.4652 5.42743 42.0513 5.42743C41.5979 5.42743 41.1938 5.52848 40.8391 5.73054C40.4843 5.93261 40.2049 6.2227 40.0013 6.60077C39.8042 6.97883 39.7057 7.41883 39.7057 7.92077C39.7057 8.4227 39.8042 8.8627 40.0013 9.24077C40.2049 9.61883 40.4843 9.91217 40.8391 10.1208C41.1938 10.3228 41.5979 10.4239 42.0513 10.4239C42.4652 10.4239 42.8299 10.3359 43.1452 10.1599C43.4606 9.98388 43.707 9.71661 43.8844 9.3581H45.2346C44.9784 10.0099 44.5644 10.5119 43.9928 10.8639C43.4277 11.2159 42.7806 11.3919 42.0513 11.3919C41.4073 11.3919 40.8193 11.2452 40.2871 10.9519C39.7549 10.652 39.3312 10.2381 39.0158 9.7101C38.7069 9.1821 38.5526 8.58566 38.5526 7.92077ZM49.3979 11.4212C48.8854 11.4212 48.4222 11.3071 48.0083 11.079C47.5943 10.8443 47.2691 10.5184 47.0326 10.1012C46.796 9.6775 46.6778 9.18861 46.6778 8.63454C46.6778 8.08699 46.7994 7.60137 47.0424 7.17766C47.2855 6.75394 47.6174 6.42803 48.0378 6.19988C48.4583 5.97172 48.9282 5.85766 49.4472 5.85766C49.9662 5.85766 50.4361 5.97172 50.8565 6.19988C51.2769 6.42803 51.6089 6.75394 51.8519 7.17766C52.095 7.60137 52.2166 8.08699 52.2166 8.63454C52.2166 9.1821 52.0918 9.66772 51.8421 10.0914C51.5923 10.5151 51.2507 10.8443 50.8171 11.079C50.3899 11.3071 49.9169 11.4212 49.3979 11.4212ZM49.3979 10.4532C49.6871 10.4532 49.9563 10.3848 50.2061 10.2479C50.4623 10.111 50.6693 9.90566 50.827 9.63188C50.9846 9.3581 51.0635 9.02566 51.0635 8.63454C51.0635 8.24343 50.988 7.91426 50.8368 7.64699C50.6856 7.37321 50.4854 7.16788 50.2356 7.03099C49.9859 6.8941 49.7166 6.82566 49.4275 6.82566C49.1383 6.82566 48.8691 6.8941 48.6193 7.03099C48.3763 7.16788 48.1823 7.37321 48.0378 7.64699C47.8934 7.91426 47.821 8.24343 47.821 8.63454C47.821 9.2147 47.9688 9.66448 48.2645 9.98388C48.5667 10.2968 48.9445 10.4532 49.3979 10.4532ZM53.4456 8.61499C53.4456 8.07395 53.5572 7.59483 53.7807 7.17766C54.0105 6.76048 54.3194 6.43781 54.7071 6.20966C55.1013 5.97499 55.5381 5.85766 56.0179 5.85766C56.3727 5.85766 56.7208 5.93588 57.0626 6.09232C57.4107 6.24226 57.6866 6.44432 57.8904 6.69854V4.09766H59.0238V11.3332H57.8904V10.5217C57.7063 10.7824 57.4501 10.9975 57.1217 11.167C56.7996 11.3365 56.4285 11.4212 56.008 11.4212C55.535 11.4212 55.1013 11.3039 54.7071 11.0692C54.3194 10.828 54.0105 10.4956 53.7807 10.0719C53.5572 9.64166 53.4456 9.15603 53.4456 8.61499ZM57.8904 8.63454C57.8904 8.26299 57.8116 7.94032 57.6539 7.66654C57.5027 7.39277 57.3023 7.18417 57.0527 7.04077C56.803 6.89737 56.5335 6.82566 56.2446 6.82566C55.9554 6.82566 55.6859 6.89737 55.4364 7.04077C55.1867 7.17766 54.9831 7.38299 54.8254 7.65677C54.6742 7.92403 54.5987 8.24343 54.5987 8.61499C54.5987 8.98655 54.6742 9.31248 54.8254 9.59277C54.9831 9.87306 55.1867 10.0882 55.4364 10.2381C55.6927 10.3815 55.9619 10.4532 56.2446 10.4532C56.5335 10.4532 56.803 10.3815 57.0527 10.2381C57.3023 10.0947 57.5027 9.8861 57.6539 9.61232C57.8116 9.33203 57.8904 9.0061 57.8904 8.63454ZM65.9693 8.50743C65.9693 8.7095 65.9561 8.89203 65.9299 9.05499H61.7807C61.8136 9.48521 61.9744 9.8307 62.2636 10.0914C62.5528 10.3522 62.9076 10.4825 63.328 10.4825C63.9326 10.4825 64.3595 10.2316 64.6092 9.72966H65.8215C65.6573 10.2251 65.3582 10.6325 64.9246 10.9519C64.4975 11.2648 63.9653 11.4212 63.328 11.4212C62.809 11.4212 62.3425 11.3071 61.9285 11.079C61.5211 10.8443 61.1992 10.5184 60.9627 10.1012C60.7326 9.6775 60.6177 9.18861 60.6177 8.63454C60.6177 8.08048 60.7295 7.59483 60.9528 7.17766C61.1829 6.75394 61.5014 6.42803 61.9088 6.19988C62.3227 5.97172 62.7958 5.85766 63.328 5.85766C63.8405 5.85766 64.2972 5.96848 64.6979 6.1901C65.0986 6.41172 65.4109 6.72461 65.6342 7.12877C65.8575 7.52639 65.9693 7.98594 65.9693 8.50743ZM64.7965 8.15543C64.79 7.74477 64.6421 7.41559 64.353 7.16788C64.0638 6.92017 63.7059 6.79632 63.2787 6.79632C62.891 6.79632 62.5593 6.92017 62.2833 7.16788C62.0074 7.40906 61.8432 7.73826 61.7905 8.15543H64.7965ZM69.9231 11.4212C69.4107 11.4212 68.9474 11.3071 68.5335 11.079C68.1196 10.8443 67.7944 10.5184 67.5578 10.1012C67.3213 9.6775 67.203 9.18861 67.203 8.63454C67.203 8.08699 67.3246 7.60137 67.5677 7.17766C67.8109 6.75394 68.1427 6.42803 68.5631 6.19988C68.9837 5.97172 69.4534 5.85766 69.9724 5.85766C70.4916 5.85766 70.9613 5.97172 71.3818 6.19988C71.8024 6.42803 72.1341 6.75394 72.3772 7.17766C72.6204 7.60137 72.7418 8.08699 72.7418 8.63454C72.7418 9.1821 72.6171 9.66772 72.3673 10.0914C72.1178 10.5151 71.776 10.8443 71.3423 11.079C70.9154 11.3071 70.4423 11.4212 69.9231 11.4212ZM69.9231 10.4532C70.2123 10.4532 70.4818 10.3848 70.7313 10.2479C70.9875 10.111 71.1945 9.90566 71.3522 9.63188C71.5099 9.3581 71.5887 9.02566 71.5887 8.63454C71.5887 8.24343 71.5132 7.91426 71.3621 7.64699C71.2111 7.37321 71.0106 7.16788 70.7609 7.03099C70.5113 6.8941 70.2419 6.82566 69.9527 6.82566C69.6638 6.82566 69.3943 6.8941 69.1446 7.03099C68.9015 7.16788 68.7078 7.37321 68.5631 7.64699C68.4186 7.91426 68.3463 8.24343 68.3463 8.63454C68.3463 9.2147 68.4941 9.66448 68.7898 9.98388C69.0921 10.2968 69.4698 10.4532 69.9231 10.4532Z" fill="white"/>
</g>
<defs>
<clipPath id="clip0_4545_3337">
<rect width="73.2444" height="16" fill="white"/>
</clipPath>
</defs>
</svg>
