<svg width="74" height="17" viewBox="0 0 74 17" fill="none" xmlns="http://www.w3.org/2000/svg">
<g clip-path="url(#clip0_4010_352)">
<path d="M8.80947 9.30307L8.11229 8.49609C7.99749 8.36324 7.97198 8.17593 8.04706 8.01762L9.41501 5.13369C9.55482 4.83891 9.33804 4.5 9.00965 4.5H7.5352C7.36208 4.5 7.20446 4.59896 7.13034 4.75418L5.36604 8.4494C5.28742 8.61409 5.31809 8.80971 5.44341 8.94291L8.16938 11.8406C8.29201 11.9709 8.32425 12.1614 8.25125 12.3243L6.86601 15.4165C6.73274 15.714 6.33298 15.7731 6.11809 15.5271L0.943437 9.60344C0.829152 9.47262 0.80184 9.28787 0.873449 9.12998L4.66895 0.76206C4.74129 0.602571 4.9012 0.5 5.07748 0.5H12.829C13.1545 0.5 13.3713 0.833438 13.2372 1.12763L9.55775 9.197C9.4226 9.4934 9.02285 9.55004 8.80947 9.30307Z" fill="#38B6FF"/>
<path d="M14.3557 1.77285L12.9807 4.67157C12.9027 4.83608 12.9335 5.03115 13.0586 5.16406L15.7841 8.06121C15.9072 8.19212 15.9391 8.38357 15.8651 8.54686L14.0903 12.4597C14.018 12.6192 13.8581 12.7217 13.6818 12.7217H12.1969C11.8727 12.7217 11.6559 12.3907 11.7875 12.0968L13.1745 9.00068C13.2498 8.83264 13.213 8.63595 13.0819 8.5059L12.1994 7.63039C11.9753 7.40804 11.5957 7.48057 11.4709 7.76957L7.96737 15.88C7.84068 16.1733 8.0575 16.4995 8.37913 16.4995H16.1457C16.322 16.4995 16.4818 16.397 16.5542 16.2375L20.3475 7.87437C20.4202 7.71404 20.3908 7.52621 20.2725 7.3953L15.0945 1.66541C14.8805 1.42852 14.4922 1.48498 14.3557 1.77285Z" fill="#5E17EB"/>
<path d="M29.7469 6.99321C29.5695 6.65426 29.3231 6.40003 29.0077 6.23054C28.6923 6.05454 28.3277 5.96654 27.9137 5.96654C27.4604 5.96654 27.0563 6.06759 26.7015 6.26966C26.3467 6.47172 26.0674 6.75854 25.8638 7.1301C25.6667 7.50166 25.5681 7.93188 25.5681 8.42077C25.5681 8.90966 25.6667 9.34314 25.8638 9.72121C26.0674 10.0928 26.3467 10.3796 26.7015 10.5817C27.0563 10.7837 27.4604 10.8848 27.9137 10.8848C28.5248 10.8848 29.0209 10.7153 29.4019 10.3763C29.7829 10.0374 30.0163 9.57781 30.1017 8.99766H27.5294V8.10788H31.304V8.9781C31.2317 9.5061 31.0413 9.99172 30.7324 10.435C30.4303 10.8783 30.0327 11.2335 29.5399 11.5008C29.0536 11.7615 28.5116 11.8919 27.9137 11.8919C27.2698 11.8919 26.6818 11.7452 26.1496 11.4519C25.6174 11.152 25.1936 10.7381 24.8782 10.2101C24.5694 9.6821 24.415 9.08566 24.415 8.42077C24.415 7.75588 24.5694 7.15943 24.8782 6.63143C25.1936 6.10343 25.6174 5.69277 26.1496 5.39943C26.6883 5.09959 27.2765 4.94966 27.9137 4.94966C28.6431 4.94966 29.2902 5.12892 29.8553 5.48743C30.4269 5.83943 30.8408 6.34137 31.0971 6.99321H29.7469ZM35.2604 11.9212C34.7479 11.9212 34.2847 11.8071 33.8707 11.579C33.4568 11.3443 33.1316 11.0184 32.895 10.6012C32.6585 10.1775 32.5402 9.68861 32.5402 9.13454C32.5402 8.58699 32.6619 8.10137 32.9049 7.67766C33.1482 7.25394 33.4799 6.92803 33.9003 6.69988C34.321 6.47172 34.7907 6.35766 35.3096 6.35766C35.8289 6.35766 36.2986 6.47172 36.719 6.69988C37.1396 6.92803 37.4714 7.25394 37.7144 7.67766C37.9576 8.10137 38.079 8.58699 38.079 9.13454C38.079 9.6821 37.9543 10.1677 37.7045 10.5914C37.455 11.0151 37.1132 11.3443 36.6796 11.579C36.2526 11.8071 35.7796 11.9212 35.2604 11.9212ZM35.2604 10.9532C35.5495 10.9532 35.819 10.8848 36.0685 10.7479C36.3248 10.611 36.5317 10.4057 36.6894 10.1319C36.8471 9.8581 36.926 9.52566 36.926 9.13454C36.926 8.74343 36.8505 8.41426 36.6993 8.14699C36.5483 7.87321 36.3478 7.66788 36.0981 7.53099C35.8486 7.3941 35.5791 7.32566 35.2899 7.32566C35.001 7.32566 34.7315 7.3941 34.4818 7.53099C34.2388 7.66788 34.045 7.87321 33.9003 8.14699C33.7558 8.41426 33.6835 8.74343 33.6835 9.13454C33.6835 9.7147 33.8313 10.1645 34.127 10.4839C34.4294 10.7968 34.807 10.9532 35.2604 10.9532ZM39.3081 8.42077C39.3081 7.75588 39.4624 7.15943 39.7713 6.63143C40.0867 6.10343 40.5105 5.69277 41.0426 5.39943C41.5813 5.09959 42.1695 4.94966 42.8068 4.94966C43.5361 4.94966 44.1832 5.12892 44.7483 5.48743C45.3199 5.83943 45.7339 6.34137 45.9901 6.99321H44.6399C44.4625 6.6347 44.2161 6.36743 43.9007 6.19143C43.5854 6.01543 43.2207 5.92743 42.8068 5.92743C42.3534 5.92743 41.9494 6.02848 41.5946 6.23054C41.2398 6.43261 40.9604 6.7227 40.7568 7.10077C40.5597 7.47883 40.4612 7.91883 40.4612 8.42077C40.4612 8.9227 40.5597 9.3627 40.7568 9.74077C40.9604 10.1188 41.2398 10.4122 41.5946 10.6208C41.9494 10.8228 42.3534 10.9239 42.8068 10.9239C43.2207 10.9239 43.5854 10.8359 43.9007 10.6599C44.2161 10.4839 44.4625 10.2166 44.6399 9.8581H45.9901C45.7339 10.5099 45.3199 11.0119 44.7483 11.3639C44.1832 11.7159 43.5361 11.8919 42.8068 11.8919C42.1628 11.8919 41.5748 11.7452 41.0426 11.4519C40.5105 11.152 40.0867 10.7381 39.7713 10.2101C39.4624 9.6821 39.3081 9.08566 39.3081 8.42077ZM50.1534 11.9212C49.6409 11.9212 49.1777 11.8071 48.7638 11.579C48.3498 11.3443 48.0246 11.0184 47.7881 10.6012C47.5515 10.1775 47.4333 9.68861 47.4333 9.13454C47.4333 8.58699 47.5549 8.10137 47.7979 7.67766C48.041 7.25394 48.3729 6.92803 48.7933 6.69988C49.2138 6.47172 49.6837 6.35766 50.2027 6.35766C50.7217 6.35766 51.1916 6.47172 51.612 6.69988C52.0324 6.92803 52.3644 7.25394 52.6074 7.67766C52.8505 8.10137 52.9721 8.58699 52.9721 9.13454C52.9721 9.6821 52.8473 10.1677 52.5976 10.5914C52.3478 11.0151 52.0062 11.3443 51.5726 11.579C51.1455 11.8071 50.6724 11.9212 50.1534 11.9212ZM50.1534 10.9532C50.4426 10.9532 50.7118 10.8848 50.9616 10.7479C51.2178 10.611 51.4248 10.4057 51.5825 10.1319C51.7401 9.8581 51.819 9.52566 51.819 9.13454C51.819 8.74343 51.7435 8.41426 51.5923 8.14699C51.4411 7.87321 51.2409 7.66788 50.9911 7.53099C50.7414 7.3941 50.4721 7.32566 50.183 7.32566C49.8938 7.32566 49.6246 7.3941 49.3748 7.53099C49.1318 7.66788 48.9378 7.87321 48.7933 8.14699C48.6489 8.41426 48.5765 8.74343 48.5765 9.13454C48.5765 9.7147 48.7244 10.1645 49.02 10.4839C49.3222 10.7968 49.7001 10.9532 50.1534 10.9532ZM54.2011 9.11499C54.2011 8.57395 54.3127 8.09483 54.5362 7.67766C54.766 7.26048 55.0749 6.93781 55.4626 6.70966C55.8568 6.47499 56.2936 6.35766 56.7734 6.35766C57.1282 6.35766 57.4763 6.43588 57.8181 6.59232C58.1662 6.74226 58.4421 6.94432 58.646 7.19854V4.59766H59.7793V11.8332H58.646V11.0217C58.4618 11.2824 58.2056 11.4975 57.8772 11.667C57.5551 11.8365 57.184 11.9212 56.7636 11.9212C56.2905 11.9212 55.8568 11.8039 55.4626 11.5692C55.0749 11.328 54.766 10.9956 54.5362 10.5719C54.3127 10.1417 54.2011 9.65603 54.2011 9.11499ZM58.646 9.13454C58.646 8.76299 58.5671 8.44032 58.4094 8.16654C58.2582 7.89277 58.0578 7.68417 57.8082 7.54077C57.5585 7.39737 57.289 7.32566 57.0001 7.32566C56.7109 7.32566 56.4415 7.39737 56.1919 7.54077C55.9422 7.67766 55.7386 7.88299 55.5809 8.15677C55.4297 8.42403 55.3542 8.74343 55.3542 9.11499C55.3542 9.48655 55.4297 9.81248 55.5809 10.0928C55.7386 10.3731 55.9422 10.5882 56.1919 10.7381C56.4482 10.8815 56.7174 10.9532 57.0001 10.9532C57.289 10.9532 57.5585 10.8815 57.8082 10.7381C58.0578 10.5947 58.2582 10.3861 58.4094 10.1123C58.5671 9.83203 58.646 9.5061 58.646 9.13454ZM66.7248 9.00743C66.7248 9.2095 66.7116 9.39203 66.6854 9.55499H62.5362C62.5691 9.98521 62.73 10.3307 63.0191 10.5914C63.3083 10.8522 63.6631 10.9825 64.0835 10.9825C64.6881 10.9825 65.115 10.7316 65.3647 10.2297H66.577C66.4128 10.7251 66.1138 11.1325 65.6801 11.4519C65.253 11.7648 64.7208 11.9212 64.0835 11.9212C63.5645 11.9212 63.098 11.8071 62.684 11.579C62.2766 11.3443 61.9547 11.0184 61.7182 10.6012C61.4882 10.1775 61.3732 9.68861 61.3732 9.13454C61.3732 8.58048 61.485 8.09483 61.7083 7.67766C61.9384 7.25394 62.2569 6.92803 62.6643 6.69988C63.0783 6.47172 63.5513 6.35766 64.0835 6.35766C64.596 6.35766 65.0527 6.46848 65.4534 6.6901C65.8541 6.91172 66.1664 7.22461 66.3897 7.62877C66.613 8.02639 66.7248 8.48594 66.7248 9.00743ZM65.552 8.65543C65.5455 8.24477 65.3977 7.91559 65.1085 7.66788C64.8193 7.42017 64.4614 7.29632 64.0342 7.29632C63.6465 7.29632 63.3148 7.42017 63.0388 7.66788C62.7629 7.90906 62.5987 8.23826 62.5461 8.65543H65.552ZM70.6786 11.9212C70.1662 11.9212 69.703 11.8071 69.289 11.579C68.8751 11.3443 68.5499 11.0184 68.3133 10.6012C68.0768 10.1775 67.9585 9.68861 67.9585 9.13454C67.9585 8.58699 68.0802 8.10137 68.3232 7.67766C68.5664 7.25394 68.8982 6.92803 69.3186 6.69988C69.7392 6.47172 70.2089 6.35766 70.7279 6.35766C71.2471 6.35766 71.7168 6.47172 72.1373 6.69988C72.5579 6.92803 72.8896 7.25394 73.1327 7.67766C73.3759 8.10137 73.4973 8.58699 73.4973 9.13454C73.4973 9.6821 73.3726 10.1677 73.1228 10.5914C72.8733 11.0151 72.5315 11.3443 72.0978 11.579C71.6709 11.8071 71.1979 11.9212 70.6786 11.9212ZM70.6786 10.9532C70.9678 10.9532 71.2373 10.8848 71.4868 10.7479C71.743 10.611 71.95 10.4057 72.1077 10.1319C72.2654 9.8581 72.3442 9.52566 72.3442 9.13454C72.3442 8.74343 72.2688 8.41426 72.1176 8.14699C71.9666 7.87321 71.7661 7.66788 71.5164 7.53099C71.2668 7.3941 70.9974 7.32566 70.7082 7.32566C70.4193 7.32566 70.1498 7.3941 69.9001 7.53099C69.657 7.66788 69.4633 7.87321 69.3186 8.14699C69.1741 8.41426 69.1018 8.74343 69.1018 9.13454C69.1018 9.7147 69.2496 10.1645 69.5453 10.4839C69.8477 10.7968 70.2253 10.9532 70.6786 10.9532Z" fill="url(#paint0_linear_4010_352)"/>
</g>
<defs>
<linearGradient id="paint0_linear_4010_352" x1="74" y1="1.16655" x2="47.2589" y2="34.469" gradientUnits="userSpaceOnUse">
<stop stop-color="#6606E9"/>
<stop offset="1" stop-color="#2998FF"/>
</linearGradient>
<clipPath id="clip0_4010_352">
<rect width="73.2444" height="16" fill="white" transform="translate(0.755859 0.5)"/>
</clipPath>
</defs>
</svg>
