<svg width="16" height="14" viewBox="0 0 16 14" fill="none" xmlns="http://www.w3.org/2000/svg">
<path d="M13.5452 1.9072C12.5078 1.43079 11.413 1.09095 10.2882 0.896202C10.278 0.894486 10.2675 0.895968 10.2582 0.900445C10.2489 0.904922 10.2412 0.912173 10.2362 0.921202C10.0952 1.1712 9.93917 1.4982 9.83017 1.7542C8.61776 1.57036 7.38457 1.57036 6.17217 1.7542C6.05109 1.46879 5.91353 1.19065 5.76017 0.921202C5.75515 0.912173 5.74745 0.904922 5.73814 0.900445C5.72883 0.895968 5.71836 0.894486 5.70817 0.896202C4.58317 1.0902 3.48817 1.4302 2.45117 1.9072C2.44225 1.91051 2.43481 1.9169 2.43017 1.9252C0.356169 5.0242 -0.212831 8.0472 0.0661689 11.0322C0.0681689 11.0469 0.0751689 11.0592 0.0871689 11.0692C1.29514 11.9634 2.64593 12.6464 4.08217 13.0892C4.09231 13.0924 4.10321 13.0923 4.11328 13.0889C4.12335 13.0855 4.13207 13.0789 4.13817 13.0702C4.44684 12.6502 4.7195 12.2072 4.95617 11.7412C4.96109 11.7316 4.96277 11.7207 4.96097 11.71C4.95917 11.6994 4.95398 11.6896 4.94617 11.6822L4.92817 11.6712C4.49753 11.5052 4.0803 11.3062 3.68017 11.0762C3.669 11.0699 3.66069 11.0595 3.65697 11.0472C3.65325 11.0349 3.65439 11.0217 3.66017 11.0102L3.67517 10.9912C3.75984 10.9279 3.8425 10.8629 3.92317 10.7962C3.93024 10.7905 3.93872 10.7869 3.9477 10.7856C3.95668 10.7844 3.96583 10.7856 3.97417 10.7892C6.59317 11.9852 9.42817 11.9852 12.0152 10.7892C12.0238 10.7852 12.0333 10.7838 12.0427 10.785C12.0521 10.7863 12.0609 10.7901 12.0682 10.7962C12.1488 10.8629 12.2315 10.9279 12.3162 10.9912C12.3232 10.996 12.3289 11.0026 12.3327 11.0102C12.3365 11.0178 12.3383 11.0263 12.3379 11.0348C12.3375 11.0433 12.3349 11.0516 12.3304 11.0589C12.3259 11.0661 12.3196 11.0721 12.3122 11.0762C11.9138 11.3099 11.4959 11.5086 11.0632 11.6702C11.0563 11.6727 11.05 11.6767 11.0448 11.6819C11.0396 11.687 11.0357 11.6933 11.0332 11.7002C11.0307 11.7069 11.0297 11.714 11.0303 11.721C11.0308 11.7281 11.0328 11.735 11.0362 11.7412C11.2762 12.2062 11.5512 12.6502 11.8532 13.0702C11.8593 13.0789 11.868 13.0855 11.8781 13.0889C11.8881 13.0923 11.899 13.0924 11.9092 13.0892C13.3482 12.6489 14.7014 11.9657 15.9102 11.0692C15.9162 11.065 15.9212 11.0594 15.9248 11.053C15.9284 11.0467 15.9306 11.0395 15.9312 11.0322C16.2652 7.5812 15.3722 4.5832 13.5652 1.9262C13.5636 1.92167 13.561 1.91757 13.5575 1.91427C13.554 1.91096 13.5498 1.90854 13.5452 1.9072ZM5.34717 9.2142C4.55817 9.2142 3.90917 8.4902 3.90917 7.6022C3.90917 6.7142 4.54617 5.9892 5.34717 5.9892C6.15417 5.9892 6.79717 6.7192 6.78517 7.6022C6.78517 8.4902 6.14817 9.2142 5.34717 9.2142ZM10.6632 9.2142C9.87517 9.2142 9.22517 8.4902 9.22517 7.6022C9.22517 6.7142 9.86217 5.9892 10.6632 5.9892C11.4702 5.9892 12.1142 6.7192 12.1012 7.6022C12.1012 8.4902 11.4702 9.2142 10.6632 9.2142Z" fill="#B0B0B0"/>
</svg>
